# xmcd
#
# Track frame offsets: 
#        150
#        15981
#        34438
#        46144
#        58112
#        72929
#        96834
#        107140
#        121321
#        132503
#        150159
#        162589
#        178645
#        193799
#
# Disc length: 2823 seconds
#
# Revision: 3
# Processed by: cddbd v1.5.2PL0 Copyright (c) Steve Scherf et al.
# Submitted via: ExactAudioCopy v0.99pb5
#
DISCID=bd0b050e
DTITLE=Willy Astor - The Sound of Islands
DYEAR=1994
DGENRE=Instrumental
TTITLE0=Pegasus -Solo-
TTITLE1=Somnambul
TTITLE2=Mrs. Blue Sky -Solo-
TTITLE3=Anuschka
TTITLE4=Höhenflug -Solo-
TTITLE5=Nautilus
TTITLE6=The Sound of Islands
TTITLE7=Ma Cherie
TTITLE8=Leicht Sinnig -Solo-
TTITLE9=Lancelot
TTITLE10=Rifugio
TTITLE11=Panta Rhei
TTITLE12=Einklang -Solo-
TTITLE13=El Cafe
EXTD=YEAR: 1994
EXTT0=
EXTT1=
EXTT2=
EXTT3=
EXTT4=
EXTT5=
EXTT6=
EXTT7=
EXTT8=
EXTT9=
EXTT10=
EXTT11=
EXTT12=
EXTT13=
PLAYORDER=
